<mxfile host="app.diagrams.net" modified="2023-11-24T02:55:35.647Z" agent="Mozilla/5.0 (X11; Linux x86_64) AppleWebKit/537.36 (KHTML, like Gecko) Chrome/119.0.0.0 Safari/537.36" etag="Kcg8TSVCG36JvFeVDyzn" version="22.1.3" type="github">
  <diagram name="Página-1" id="Lc9HYUeykJswEFQiRU-O">
    <mxGraphModel dx="1687" dy="819" grid="1" gridSize="10" guides="1" tooltips="1" connect="1" arrows="1" fold="1" page="1" pageScale="1" pageWidth="827" pageHeight="1169" math="0" shadow="0">
      <root>
        <mxCell id="0" />
        <mxCell id="1" parent="0" />
        <mxCell id="FDplaZTIDgFxjlzkoyM1-4" value="Pagamento" style="swimlane;html=1;startSize=20;fontStyle=0;collapsible=0;horizontal=0;swimlaneLine=1;swimlaneFillColor=#ffffff;strokeWidth=2;whiteSpace=wrap;" vertex="1" parent="1">
          <mxGeometry y="60" width="1130" height="410" as="geometry" />
        </mxCell>
        <mxCell id="FDplaZTIDgFxjlzkoyM1-14" style="edgeStyle=orthogonalEdgeStyle;rounded=0;orthogonalLoop=1;jettySize=auto;html=1;entryX=0.5;entryY=1;entryDx=0;entryDy=0;" edge="1" parent="FDplaZTIDgFxjlzkoyM1-4" source="FDplaZTIDgFxjlzkoyM1-7" target="FDplaZTIDgFxjlzkoyM1-6">
          <mxGeometry relative="1" as="geometry" />
        </mxCell>
        <mxCell id="FDplaZTIDgFxjlzkoyM1-7" value="Cliente dirige-se à fila de pagamento" style="rounded=1;whiteSpace=wrap;html=1;" vertex="1" parent="FDplaZTIDgFxjlzkoyM1-4">
          <mxGeometry x="80" y="230" width="120" height="60" as="geometry" />
        </mxCell>
        <mxCell id="FDplaZTIDgFxjlzkoyM1-16" style="edgeStyle=orthogonalEdgeStyle;rounded=0;orthogonalLoop=1;jettySize=auto;html=1;entryX=0;entryY=0.5;entryDx=0;entryDy=0;" edge="1" parent="FDplaZTIDgFxjlzkoyM1-4" source="FDplaZTIDgFxjlzkoyM1-6" target="FDplaZTIDgFxjlzkoyM1-15">
          <mxGeometry relative="1" as="geometry" />
        </mxCell>
        <mxCell id="FDplaZTIDgFxjlzkoyM1-6" value="Funcionário contabiliza o valor final e embala os produtos" style="shape=process;whiteSpace=wrap;html=1;backgroundOutline=1;" vertex="1" parent="FDplaZTIDgFxjlzkoyM1-4">
          <mxGeometry x="80" y="105" width="120" height="70" as="geometry" />
        </mxCell>
        <mxCell id="FDplaZTIDgFxjlzkoyM1-8" value="Funcionário emite nota fiscal e entrega ao cliente" style="rounded=1;whiteSpace=wrap;html=1;" vertex="1" parent="FDplaZTIDgFxjlzkoyM1-4">
          <mxGeometry x="585" y="110" width="120" height="60" as="geometry" />
        </mxCell>
        <mxCell id="FDplaZTIDgFxjlzkoyM1-19" style="edgeStyle=orthogonalEdgeStyle;rounded=0;orthogonalLoop=1;jettySize=auto;html=1;entryX=0;entryY=0.5;entryDx=0;entryDy=0;" edge="1" parent="FDplaZTIDgFxjlzkoyM1-4" source="FDplaZTIDgFxjlzkoyM1-9" target="FDplaZTIDgFxjlzkoyM1-8">
          <mxGeometry relative="1" as="geometry" />
        </mxCell>
        <mxCell id="FDplaZTIDgFxjlzkoyM1-21" style="edgeStyle=orthogonalEdgeStyle;rounded=0;orthogonalLoop=1;jettySize=auto;html=1;exitX=0.5;exitY=0;exitDx=0;exitDy=0;exitPerimeter=0;entryX=0.5;entryY=0;entryDx=0;entryDy=0;" edge="1" parent="FDplaZTIDgFxjlzkoyM1-4" source="FDplaZTIDgFxjlzkoyM1-9" target="FDplaZTIDgFxjlzkoyM1-15">
          <mxGeometry relative="1" as="geometry">
            <Array as="points">
              <mxPoint x="459" y="70" />
              <mxPoint x="310" y="70" />
            </Array>
          </mxGeometry>
        </mxCell>
        <mxCell id="FDplaZTIDgFxjlzkoyM1-9" value="" style="points=[[0.25,0.25,0],[0.5,0,0],[0.75,0.25,0],[1,0.5,0],[0.75,0.75,0],[0.5,1,0],[0.25,0.75,0],[0,0.5,0]];shape=mxgraph.bpmn.gateway2;html=1;verticalLabelPosition=bottom;labelBackgroundColor=#ffffff;verticalAlign=top;align=center;perimeter=rhombusPerimeter;outlineConnect=0;outline=none;symbol=none;gwType=parallel;" vertex="1" parent="FDplaZTIDgFxjlzkoyM1-4">
          <mxGeometry x="434" y="115" width="50" height="50" as="geometry" />
        </mxCell>
        <mxCell id="FDplaZTIDgFxjlzkoyM1-10" value="" style="points=[[0.25,0.25,0],[0.5,0,0],[0.75,0.25,0],[1,0.5,0],[0.75,0.75,0],[0.5,1,0],[0.25,0.75,0],[0,0.5,0]];shape=mxgraph.bpmn.gateway2;html=1;verticalLabelPosition=bottom;labelBackgroundColor=#ffffff;verticalAlign=top;align=center;perimeter=rhombusPerimeter;outlineConnect=0;outline=none;symbol=none;gwType=parallel;" vertex="1" parent="FDplaZTIDgFxjlzkoyM1-4">
          <mxGeometry x="760" y="115" width="50" height="50" as="geometry" />
        </mxCell>
        <mxCell id="FDplaZTIDgFxjlzkoyM1-26" style="edgeStyle=orthogonalEdgeStyle;rounded=0;orthogonalLoop=1;jettySize=auto;html=1;exitX=1;exitY=0.5;exitDx=0;exitDy=0;exitPerimeter=0;entryX=0;entryY=0.5;entryDx=0;entryDy=0;" edge="1" parent="FDplaZTIDgFxjlzkoyM1-4" source="FDplaZTIDgFxjlzkoyM1-11" target="FDplaZTIDgFxjlzkoyM1-12">
          <mxGeometry relative="1" as="geometry" />
        </mxCell>
        <mxCell id="FDplaZTIDgFxjlzkoyM1-11" value="" style="points=[[0.25,0.25,0],[0.5,0,0],[0.75,0.25,0],[1,0.5,0],[0.75,0.75,0],[0.5,1,0],[0.25,0.75,0],[0,0.5,0]];shape=mxgraph.bpmn.gateway2;html=1;verticalLabelPosition=bottom;labelBackgroundColor=#ffffff;verticalAlign=top;align=center;perimeter=rhombusPerimeter;outlineConnect=0;outline=none;symbol=none;gwType=parallel;" vertex="1" parent="FDplaZTIDgFxjlzkoyM1-4">
          <mxGeometry x="850" y="115" width="50" height="50" as="geometry" />
        </mxCell>
        <mxCell id="FDplaZTIDgFxjlzkoyM1-12" value="Cliente anota suas críticas e sugestões em um formulário e deposita em uma urna" style="shape=process;whiteSpace=wrap;html=1;backgroundOutline=1;" vertex="1" parent="FDplaZTIDgFxjlzkoyM1-4">
          <mxGeometry x="1000" y="92.5" width="120" height="95" as="geometry" />
        </mxCell>
        <mxCell id="FDplaZTIDgFxjlzkoyM1-15" value="Cliente escolhe a forma de pagamento" style="rounded=1;whiteSpace=wrap;html=1;" vertex="1" parent="FDplaZTIDgFxjlzkoyM1-4">
          <mxGeometry x="250" y="110" width="120" height="60" as="geometry" />
        </mxCell>
        <mxCell id="FDplaZTIDgFxjlzkoyM1-17" style="edgeStyle=orthogonalEdgeStyle;rounded=0;orthogonalLoop=1;jettySize=auto;html=1;exitX=1;exitY=0.5;exitDx=0;exitDy=0;entryX=0;entryY=0.5;entryDx=0;entryDy=0;entryPerimeter=0;" edge="1" parent="FDplaZTIDgFxjlzkoyM1-4" source="FDplaZTIDgFxjlzkoyM1-15" target="FDplaZTIDgFxjlzkoyM1-9">
          <mxGeometry relative="1" as="geometry" />
        </mxCell>
        <mxCell id="FDplaZTIDgFxjlzkoyM1-18" value="Forma de pagamento &lt;br&gt;aceita" style="text;html=1;align=center;verticalAlign=middle;resizable=0;points=[];autosize=1;strokeColor=none;fillColor=none;" vertex="1" parent="FDplaZTIDgFxjlzkoyM1-4">
          <mxGeometry x="389" y="160" width="140" height="40" as="geometry" />
        </mxCell>
        <mxCell id="FDplaZTIDgFxjlzkoyM1-20" value="Sim" style="text;html=1;align=center;verticalAlign=middle;resizable=0;points=[];autosize=1;strokeColor=none;fillColor=none;" vertex="1" parent="FDplaZTIDgFxjlzkoyM1-4">
          <mxGeometry x="520" y="115" width="40" height="30" as="geometry" />
        </mxCell>
        <mxCell id="FDplaZTIDgFxjlzkoyM1-22" value="Não" style="text;html=1;align=center;verticalAlign=middle;resizable=0;points=[];autosize=1;strokeColor=none;fillColor=none;" vertex="1" parent="FDplaZTIDgFxjlzkoyM1-4">
          <mxGeometry x="369" y="40" width="50" height="30" as="geometry" />
        </mxCell>
        <mxCell id="FDplaZTIDgFxjlzkoyM1-23" style="edgeStyle=orthogonalEdgeStyle;rounded=0;orthogonalLoop=1;jettySize=auto;html=1;entryX=0;entryY=0.5;entryDx=0;entryDy=0;entryPerimeter=0;" edge="1" parent="FDplaZTIDgFxjlzkoyM1-4" source="FDplaZTIDgFxjlzkoyM1-8" target="FDplaZTIDgFxjlzkoyM1-10">
          <mxGeometry relative="1" as="geometry" />
        </mxCell>
        <mxCell id="FDplaZTIDgFxjlzkoyM1-24" style="edgeStyle=orthogonalEdgeStyle;rounded=0;orthogonalLoop=1;jettySize=auto;html=1;entryX=0;entryY=0.5;entryDx=0;entryDy=0;entryPerimeter=0;" edge="1" parent="FDplaZTIDgFxjlzkoyM1-4" source="FDplaZTIDgFxjlzkoyM1-10" target="FDplaZTIDgFxjlzkoyM1-11">
          <mxGeometry relative="1" as="geometry" />
        </mxCell>
        <mxCell id="FDplaZTIDgFxjlzkoyM1-25" value="Participar da pesquisa&lt;br&gt;de satisfação" style="text;html=1;align=center;verticalAlign=middle;resizable=0;points=[];autosize=1;strokeColor=none;fillColor=none;" vertex="1" parent="FDplaZTIDgFxjlzkoyM1-4">
          <mxGeometry x="800" y="160" width="140" height="40" as="geometry" />
        </mxCell>
        <mxCell id="FDplaZTIDgFxjlzkoyM1-27" value="Sim" style="text;html=1;align=center;verticalAlign=middle;resizable=0;points=[];autosize=1;strokeColor=none;fillColor=none;" vertex="1" parent="FDplaZTIDgFxjlzkoyM1-4">
          <mxGeometry x="930" y="115" width="40" height="30" as="geometry" />
        </mxCell>
        <mxCell id="FDplaZTIDgFxjlzkoyM1-29" value="" style="points=[[0.145,0.145,0],[0.5,0,0],[0.855,0.145,0],[1,0.5,0],[0.855,0.855,0],[0.5,1,0],[0.145,0.855,0],[0,0.5,0]];shape=mxgraph.bpmn.event;html=1;verticalLabelPosition=bottom;labelBackgroundColor=#ffffff;verticalAlign=top;align=center;perimeter=ellipsePerimeter;outlineConnect=0;aspect=fixed;outline=end;symbol=terminate;" vertex="1" parent="FDplaZTIDgFxjlzkoyM1-4">
          <mxGeometry x="850" y="10" width="50" height="50" as="geometry" />
        </mxCell>
        <mxCell id="FDplaZTIDgFxjlzkoyM1-28" style="edgeStyle=orthogonalEdgeStyle;rounded=0;orthogonalLoop=1;jettySize=auto;html=1;exitX=0.5;exitY=0;exitDx=0;exitDy=0;exitPerimeter=0;" edge="1" parent="FDplaZTIDgFxjlzkoyM1-4" source="FDplaZTIDgFxjlzkoyM1-11" target="FDplaZTIDgFxjlzkoyM1-29">
          <mxGeometry relative="1" as="geometry">
            <mxPoint x="875" y="80" as="targetPoint" />
          </mxGeometry>
        </mxCell>
        <mxCell id="FDplaZTIDgFxjlzkoyM1-30" style="edgeStyle=orthogonalEdgeStyle;rounded=0;orthogonalLoop=1;jettySize=auto;html=1;exitX=0.5;exitY=0;exitDx=0;exitDy=0;entryX=0.5;entryY=1;entryDx=0;entryDy=0;entryPerimeter=0;" edge="1" parent="FDplaZTIDgFxjlzkoyM1-4" source="FDplaZTIDgFxjlzkoyM1-12" target="FDplaZTIDgFxjlzkoyM1-29">
          <mxGeometry relative="1" as="geometry">
            <Array as="points">
              <mxPoint x="1060" y="80" />
              <mxPoint x="875" y="80" />
            </Array>
          </mxGeometry>
        </mxCell>
        <mxCell id="FDplaZTIDgFxjlzkoyM1-31" value="Não" style="text;html=1;align=center;verticalAlign=middle;resizable=0;points=[];autosize=1;strokeColor=none;fillColor=none;" vertex="1" parent="FDplaZTIDgFxjlzkoyM1-4">
          <mxGeometry x="833" y="85" width="50" height="30" as="geometry" />
        </mxCell>
        <mxCell id="FDplaZTIDgFxjlzkoyM1-34" style="edgeStyle=orthogonalEdgeStyle;rounded=0;orthogonalLoop=1;jettySize=auto;html=1;exitX=0.5;exitY=0;exitDx=0;exitDy=0;exitPerimeter=0;entryX=0.5;entryY=1;entryDx=0;entryDy=0;" edge="1" parent="FDplaZTIDgFxjlzkoyM1-4" source="FDplaZTIDgFxjlzkoyM1-32" target="FDplaZTIDgFxjlzkoyM1-7">
          <mxGeometry relative="1" as="geometry" />
        </mxCell>
        <mxCell id="FDplaZTIDgFxjlzkoyM1-32" value="" style="points=[[0.25,0.25,0],[0.5,0,0],[0.75,0.25,0],[1,0.5,0],[0.75,0.75,0],[0.5,1,0],[0.25,0.75,0],[0,0.5,0]];shape=mxgraph.bpmn.gateway2;html=1;verticalLabelPosition=bottom;labelBackgroundColor=#ffffff;verticalAlign=top;align=center;perimeter=rhombusPerimeter;outlineConnect=0;outline=none;symbol=none;gwType=parallel;" vertex="1" parent="FDplaZTIDgFxjlzkoyM1-4">
          <mxGeometry x="115" y="320" width="50" height="50" as="geometry" />
        </mxCell>
        <mxCell id="FDplaZTIDgFxjlzkoyM1-33" value="Cliente adquiriu &lt;br&gt;algum produto?" style="text;html=1;align=center;verticalAlign=middle;resizable=0;points=[];autosize=1;strokeColor=none;fillColor=none;" vertex="1" parent="FDplaZTIDgFxjlzkoyM1-4">
          <mxGeometry x="165" y="325" width="110" height="40" as="geometry" />
        </mxCell>
        <mxCell id="FDplaZTIDgFxjlzkoyM1-35" value="Sim" style="text;html=1;align=center;verticalAlign=middle;resizable=0;points=[];autosize=1;strokeColor=none;fillColor=none;" vertex="1" parent="FDplaZTIDgFxjlzkoyM1-4">
          <mxGeometry x="135" y="296" width="40" height="30" as="geometry" />
        </mxCell>
        <mxCell id="FDplaZTIDgFxjlzkoyM1-36" style="edgeStyle=orthogonalEdgeStyle;rounded=0;orthogonalLoop=1;jettySize=auto;html=1;exitX=0;exitY=0.5;exitDx=0;exitDy=0;exitPerimeter=0;entryX=0.5;entryY=0;entryDx=0;entryDy=0;entryPerimeter=0;" edge="1" parent="FDplaZTIDgFxjlzkoyM1-4" source="FDplaZTIDgFxjlzkoyM1-32" target="FDplaZTIDgFxjlzkoyM1-10">
          <mxGeometry relative="1" as="geometry">
            <Array as="points">
              <mxPoint x="50" y="345" />
              <mxPoint x="50" y="30" />
              <mxPoint x="785" y="30" />
            </Array>
          </mxGeometry>
        </mxCell>
        <mxCell id="FDplaZTIDgFxjlzkoyM1-37" value="Não" style="text;html=1;align=center;verticalAlign=middle;resizable=0;points=[];autosize=1;strokeColor=none;fillColor=none;" vertex="1" parent="FDplaZTIDgFxjlzkoyM1-4">
          <mxGeometry x="40" y="296" width="50" height="30" as="geometry" />
        </mxCell>
        <mxCell id="FDplaZTIDgFxjlzkoyM1-38" value="Compra" style="swimlane;html=1;startSize=20;fontStyle=0;collapsible=0;horizontal=0;swimlaneLine=1;swimlaneFillColor=#ffffff;strokeWidth=2;whiteSpace=wrap;" vertex="1" parent="1">
          <mxGeometry y="470" width="1130" height="630" as="geometry" />
        </mxCell>
        <mxCell id="FDplaZTIDgFxjlzkoyM1-55" style="edgeStyle=orthogonalEdgeStyle;rounded=0;orthogonalLoop=1;jettySize=auto;html=1;exitX=1;exitY=0.5;exitDx=0;exitDy=0;exitPerimeter=0;entryX=0;entryY=0.5;entryDx=0;entryDy=0;" edge="1" parent="FDplaZTIDgFxjlzkoyM1-38" source="FDplaZTIDgFxjlzkoyM1-39" target="FDplaZTIDgFxjlzkoyM1-41">
          <mxGeometry relative="1" as="geometry" />
        </mxCell>
        <mxCell id="FDplaZTIDgFxjlzkoyM1-71" style="edgeStyle=orthogonalEdgeStyle;rounded=0;orthogonalLoop=1;jettySize=auto;html=1;exitX=1;exitY=0.5;exitDx=0;exitDy=0;exitPerimeter=0;entryX=0;entryY=0.5;entryDx=0;entryDy=0;" edge="1" parent="FDplaZTIDgFxjlzkoyM1-38" source="FDplaZTIDgFxjlzkoyM1-43" target="FDplaZTIDgFxjlzkoyM1-44">
          <mxGeometry relative="1" as="geometry" />
        </mxCell>
        <mxCell id="FDplaZTIDgFxjlzkoyM1-58" value="Local" style="text;html=1;align=center;verticalAlign=middle;resizable=0;points=[];autosize=1;strokeColor=none;fillColor=none;" vertex="1" parent="FDplaZTIDgFxjlzkoyM1-38">
          <mxGeometry x="175" y="330" width="50" height="30" as="geometry" />
        </mxCell>
        <mxCell id="FDplaZTIDgFxjlzkoyM1-65" value="Sim" style="text;html=1;align=center;verticalAlign=middle;resizable=0;points=[];autosize=1;strokeColor=none;fillColor=none;" vertex="1" parent="FDplaZTIDgFxjlzkoyM1-38">
          <mxGeometry x="960" y="420" width="40" height="30" as="geometry" />
        </mxCell>
        <mxCell id="FDplaZTIDgFxjlzkoyM1-68" value="Não" style="text;html=1;align=center;verticalAlign=middle;resizable=0;points=[];autosize=1;strokeColor=none;fillColor=none;" vertex="1" parent="FDplaZTIDgFxjlzkoyM1-38">
          <mxGeometry x="960" y="365" width="50" height="30" as="geometry" />
        </mxCell>
        <mxCell id="FDplaZTIDgFxjlzkoyM1-44" value="Funcionário embala os produtos e entrega ao cliente" style="shape=process;whiteSpace=wrap;html=1;backgroundOutline=1;" vertex="1" parent="FDplaZTIDgFxjlzkoyM1-38">
          <mxGeometry x="440" y="130" width="120" height="70" as="geometry" />
        </mxCell>
        <mxCell id="FDplaZTIDgFxjlzkoyM1-43" value="" style="points=[[0.25,0.25,0],[0.5,0,0],[0.75,0.25,0],[1,0.5,0],[0.75,0.75,0],[0.5,1,0],[0.25,0.75,0],[0,0.5,0]];shape=mxgraph.bpmn.gateway2;html=1;verticalLabelPosition=bottom;labelBackgroundColor=#ffffff;verticalAlign=top;align=center;perimeter=rhombusPerimeter;outlineConnect=0;outline=none;symbol=none;gwType=parallel;" vertex="1" parent="FDplaZTIDgFxjlzkoyM1-38">
          <mxGeometry x="354" y="140" width="50" height="50" as="geometry" />
        </mxCell>
        <mxCell id="FDplaZTIDgFxjlzkoyM1-41" value="Cliente dirige-se ao balcão de atendimento pra viagem" style="rounded=1;whiteSpace=wrap;html=1;" vertex="1" parent="FDplaZTIDgFxjlzkoyM1-38">
          <mxGeometry x="200" y="135" width="120" height="60" as="geometry" />
        </mxCell>
        <mxCell id="FDplaZTIDgFxjlzkoyM1-72" value="Produto&lt;br&gt;disponível" style="text;html=1;align=center;verticalAlign=middle;resizable=0;points=[];autosize=1;strokeColor=none;fillColor=none;" vertex="1" parent="FDplaZTIDgFxjlzkoyM1-38">
          <mxGeometry x="339" y="185" width="80" height="40" as="geometry" />
        </mxCell>
        <mxCell id="FDplaZTIDgFxjlzkoyM1-73" value="Sim" style="text;html=1;align=center;verticalAlign=middle;resizable=0;points=[];autosize=1;strokeColor=none;fillColor=none;" vertex="1" parent="FDplaZTIDgFxjlzkoyM1-38">
          <mxGeometry x="400" y="160" width="40" height="30" as="geometry" />
        </mxCell>
        <mxCell id="FDplaZTIDgFxjlzkoyM1-57" value="Viagem" style="text;html=1;align=center;verticalAlign=middle;resizable=0;points=[];autosize=1;strokeColor=none;fillColor=none;" vertex="1" parent="FDplaZTIDgFxjlzkoyM1-38">
          <mxGeometry x="175" y="215" width="60" height="30" as="geometry" />
        </mxCell>
        <mxCell id="FDplaZTIDgFxjlzkoyM1-39" value="" style="points=[[0.25,0.25,0],[0.5,0,0],[0.75,0.25,0],[1,0.5,0],[0.75,0.75,0],[0.5,1,0],[0.25,0.75,0],[0,0.5,0]];shape=mxgraph.bpmn.gateway2;html=1;verticalLabelPosition=bottom;labelBackgroundColor=#ffffff;verticalAlign=top;align=center;perimeter=rhombusPerimeter;outlineConnect=0;outline=none;symbol=none;gwType=parallel;" vertex="1" parent="FDplaZTIDgFxjlzkoyM1-38">
          <mxGeometry x="105" y="245" width="50" height="50" as="geometry" />
        </mxCell>
        <mxCell id="FDplaZTIDgFxjlzkoyM1-56" style="edgeStyle=orthogonalEdgeStyle;rounded=0;orthogonalLoop=1;jettySize=auto;html=1;exitX=1;exitY=0.5;exitDx=0;exitDy=0;exitPerimeter=0;entryX=0;entryY=0.5;entryDx=0;entryDy=0;" edge="1" parent="FDplaZTIDgFxjlzkoyM1-38" source="FDplaZTIDgFxjlzkoyM1-39" target="FDplaZTIDgFxjlzkoyM1-42">
          <mxGeometry relative="1" as="geometry" />
        </mxCell>
        <mxCell id="FDplaZTIDgFxjlzkoyM1-69" value="Consumo local ou&lt;br&gt;para viagem" style="text;html=1;align=center;verticalAlign=middle;resizable=0;points=[];autosize=1;strokeColor=none;fillColor=none;" vertex="1" parent="FDplaZTIDgFxjlzkoyM1-38">
          <mxGeometry x="67" y="305" width="120" height="40" as="geometry" />
        </mxCell>
        <mxCell id="FDplaZTIDgFxjlzkoyM1-64" style="edgeStyle=orthogonalEdgeStyle;rounded=0;orthogonalLoop=1;jettySize=auto;html=1;entryX=0.5;entryY=1;entryDx=0;entryDy=0;entryPerimeter=0;" edge="1" parent="FDplaZTIDgFxjlzkoyM1-38" source="FDplaZTIDgFxjlzkoyM1-53" target="FDplaZTIDgFxjlzkoyM1-39">
          <mxGeometry relative="1" as="geometry">
            <Array as="points">
              <mxPoint x="960" y="390" />
              <mxPoint x="960" y="590" />
              <mxPoint x="130" y="590" />
            </Array>
          </mxGeometry>
        </mxCell>
        <mxCell id="FDplaZTIDgFxjlzkoyM1-42" value="Cliente dirige-se ao balcão de atendimento para consumo local" style="rounded=1;whiteSpace=wrap;html=1;" vertex="1" parent="FDplaZTIDgFxjlzkoyM1-38">
          <mxGeometry x="200" y="360" width="120" height="60" as="geometry" />
        </mxCell>
        <mxCell id="FDplaZTIDgFxjlzkoyM1-59" style="edgeStyle=orthogonalEdgeStyle;rounded=0;orthogonalLoop=1;jettySize=auto;html=1;entryX=0;entryY=0.5;entryDx=0;entryDy=0;" edge="1" parent="FDplaZTIDgFxjlzkoyM1-38" source="FDplaZTIDgFxjlzkoyM1-42" target="FDplaZTIDgFxjlzkoyM1-50">
          <mxGeometry relative="1" as="geometry" />
        </mxCell>
        <mxCell id="FDplaZTIDgFxjlzkoyM1-50" value="Cliente seleciona o produto" style="rounded=1;whiteSpace=wrap;html=1;" vertex="1" parent="FDplaZTIDgFxjlzkoyM1-38">
          <mxGeometry x="354" y="360" width="120" height="60" as="geometry" />
        </mxCell>
        <mxCell id="FDplaZTIDgFxjlzkoyM1-51" value="Funcionário da lanchonete entrega o produto ao cliente" style="shape=process;whiteSpace=wrap;html=1;backgroundOutline=1;" vertex="1" parent="FDplaZTIDgFxjlzkoyM1-38">
          <mxGeometry x="520" y="355" width="120" height="70" as="geometry" />
        </mxCell>
        <mxCell id="FDplaZTIDgFxjlzkoyM1-61" style="edgeStyle=orthogonalEdgeStyle;rounded=0;orthogonalLoop=1;jettySize=auto;html=1;exitX=1;exitY=0.5;exitDx=0;exitDy=0;entryX=0;entryY=0.5;entryDx=0;entryDy=0;" edge="1" parent="FDplaZTIDgFxjlzkoyM1-38" source="FDplaZTIDgFxjlzkoyM1-51" target="FDplaZTIDgFxjlzkoyM1-52">
          <mxGeometry relative="1" as="geometry" />
        </mxCell>
        <mxCell id="FDplaZTIDgFxjlzkoyM1-52" value="Cliente se direciona para o local de consumo" style="rounded=1;whiteSpace=wrap;html=1;" vertex="1" parent="FDplaZTIDgFxjlzkoyM1-38">
          <mxGeometry x="697" y="360" width="120" height="60" as="geometry" />
        </mxCell>
        <mxCell id="FDplaZTIDgFxjlzkoyM1-62" style="edgeStyle=orthogonalEdgeStyle;rounded=0;orthogonalLoop=1;jettySize=auto;html=1;exitX=1;exitY=0.5;exitDx=0;exitDy=0;entryX=0;entryY=0.5;entryDx=0;entryDy=0;entryPerimeter=0;" edge="1" parent="FDplaZTIDgFxjlzkoyM1-38" source="FDplaZTIDgFxjlzkoyM1-52" target="FDplaZTIDgFxjlzkoyM1-53">
          <mxGeometry relative="1" as="geometry" />
        </mxCell>
        <mxCell id="FDplaZTIDgFxjlzkoyM1-63" value="Continuar&amp;nbsp;&lt;br&gt;comprando" style="text;html=1;align=center;verticalAlign=middle;resizable=0;points=[];autosize=1;strokeColor=none;fillColor=none;" vertex="1" parent="FDplaZTIDgFxjlzkoyM1-38">
          <mxGeometry x="845" y="415" width="80" height="40" as="geometry" />
        </mxCell>
        <mxCell id="FDplaZTIDgFxjlzkoyM1-53" value="" style="points=[[0.25,0.25,0],[0.5,0,0],[0.75,0.25,0],[1,0.5,0],[0.75,0.75,0],[0.5,1,0],[0.25,0.75,0],[0,0.5,0]];shape=mxgraph.bpmn.gateway2;html=1;verticalLabelPosition=bottom;labelBackgroundColor=#ffffff;verticalAlign=top;align=center;perimeter=rhombusPerimeter;outlineConnect=0;outline=none;symbol=none;gwType=parallel;" vertex="1" parent="FDplaZTIDgFxjlzkoyM1-38">
          <mxGeometry x="860" y="365" width="50" height="50" as="geometry" />
        </mxCell>
        <mxCell id="FDplaZTIDgFxjlzkoyM1-70" style="edgeStyle=orthogonalEdgeStyle;rounded=0;orthogonalLoop=1;jettySize=auto;html=1;exitX=1;exitY=0.5;exitDx=0;exitDy=0;entryX=0;entryY=0.5;entryDx=0;entryDy=0;entryPerimeter=0;" edge="1" parent="FDplaZTIDgFxjlzkoyM1-38" source="FDplaZTIDgFxjlzkoyM1-41" target="FDplaZTIDgFxjlzkoyM1-43">
          <mxGeometry relative="1" as="geometry" />
        </mxCell>
        <mxCell id="FDplaZTIDgFxjlzkoyM1-40" value="" style="points=[[0.145,0.145,0],[0.5,0,0],[0.855,0.145,0],[1,0.5,0],[0.855,0.855,0],[0.5,1,0],[0.145,0.855,0],[0,0.5,0]];shape=mxgraph.bpmn.event;html=1;verticalLabelPosition=bottom;labelBackgroundColor=#ffffff;verticalAlign=top;align=center;perimeter=ellipsePerimeter;outlineConnect=0;aspect=fixed;outline=standard;symbol=general;" vertex="1" parent="FDplaZTIDgFxjlzkoyM1-38">
          <mxGeometry x="30" y="245" width="50" height="50" as="geometry" />
        </mxCell>
        <mxCell id="FDplaZTIDgFxjlzkoyM1-54" style="edgeStyle=orthogonalEdgeStyle;rounded=0;orthogonalLoop=1;jettySize=auto;html=1;entryX=0;entryY=0.5;entryDx=0;entryDy=0;entryPerimeter=0;" edge="1" parent="FDplaZTIDgFxjlzkoyM1-38" source="FDplaZTIDgFxjlzkoyM1-40" target="FDplaZTIDgFxjlzkoyM1-39">
          <mxGeometry relative="1" as="geometry" />
        </mxCell>
        <mxCell id="FDplaZTIDgFxjlzkoyM1-75" value="" style="points=[[0.25,0.25,0],[0.5,0,0],[0.75,0.25,0],[1,0.5,0],[0.75,0.75,0],[0.5,1,0],[0.25,0.75,0],[0,0.5,0]];shape=mxgraph.bpmn.gateway2;html=1;verticalLabelPosition=bottom;labelBackgroundColor=#ffffff;verticalAlign=top;align=center;perimeter=rhombusPerimeter;outlineConnect=0;outline=none;symbol=none;gwType=parallel;" vertex="1" parent="FDplaZTIDgFxjlzkoyM1-38">
          <mxGeometry x="289" y="30" width="50" height="50" as="geometry" />
        </mxCell>
        <mxCell id="FDplaZTIDgFxjlzkoyM1-76" style="edgeStyle=orthogonalEdgeStyle;rounded=0;orthogonalLoop=1;jettySize=auto;html=1;exitX=0.5;exitY=0;exitDx=0;exitDy=0;exitPerimeter=0;entryX=1;entryY=0.5;entryDx=0;entryDy=0;entryPerimeter=0;" edge="1" parent="FDplaZTIDgFxjlzkoyM1-38" source="FDplaZTIDgFxjlzkoyM1-43" target="FDplaZTIDgFxjlzkoyM1-75">
          <mxGeometry relative="1" as="geometry" />
        </mxCell>
        <mxCell id="FDplaZTIDgFxjlzkoyM1-77" value="Não" style="text;html=1;align=center;verticalAlign=middle;resizable=0;points=[];autosize=1;strokeColor=none;fillColor=none;" vertex="1" parent="FDplaZTIDgFxjlzkoyM1-38">
          <mxGeometry x="369" y="80" width="50" height="30" as="geometry" />
        </mxCell>
        <mxCell id="FDplaZTIDgFxjlzkoyM1-78" value="Continuar&amp;nbsp;&lt;br&gt;comprando" style="text;html=1;align=center;verticalAlign=middle;resizable=0;points=[];autosize=1;strokeColor=none;fillColor=none;" vertex="1" parent="FDplaZTIDgFxjlzkoyM1-38">
          <mxGeometry x="274" y="75" width="80" height="40" as="geometry" />
        </mxCell>
        <mxCell id="FDplaZTIDgFxjlzkoyM1-79" style="edgeStyle=orthogonalEdgeStyle;rounded=0;orthogonalLoop=1;jettySize=auto;html=1;exitX=0;exitY=0.5;exitDx=0;exitDy=0;exitPerimeter=0;entryX=0.5;entryY=0;entryDx=0;entryDy=0;entryPerimeter=0;" edge="1" parent="FDplaZTIDgFxjlzkoyM1-38" source="FDplaZTIDgFxjlzkoyM1-75" target="FDplaZTIDgFxjlzkoyM1-39">
          <mxGeometry relative="1" as="geometry" />
        </mxCell>
        <mxCell id="FDplaZTIDgFxjlzkoyM1-80" value="Sim" style="text;html=1;align=center;verticalAlign=middle;resizable=0;points=[];autosize=1;strokeColor=none;fillColor=none;" vertex="1" parent="FDplaZTIDgFxjlzkoyM1-38">
          <mxGeometry x="120" y="85" width="40" height="30" as="geometry" />
        </mxCell>
        <mxCell id="FDplaZTIDgFxjlzkoyM1-82" value="Não" style="text;html=1;align=center;verticalAlign=middle;resizable=0;points=[];autosize=1;strokeColor=none;fillColor=none;" vertex="1" parent="FDplaZTIDgFxjlzkoyM1-38">
          <mxGeometry x="130" y="10" width="50" height="30" as="geometry" />
        </mxCell>
        <mxCell id="FDplaZTIDgFxjlzkoyM1-97" style="edgeStyle=orthogonalEdgeStyle;rounded=0;orthogonalLoop=1;jettySize=auto;html=1;entryX=0.5;entryY=1;entryDx=0;entryDy=0;" edge="1" parent="FDplaZTIDgFxjlzkoyM1-38" source="FDplaZTIDgFxjlzkoyM1-94" target="FDplaZTIDgFxjlzkoyM1-51">
          <mxGeometry relative="1" as="geometry" />
        </mxCell>
        <mxCell id="FDplaZTIDgFxjlzkoyM1-100" style="edgeStyle=orthogonalEdgeStyle;rounded=0;orthogonalLoop=1;jettySize=auto;html=1;exitX=0.5;exitY=1;exitDx=0;exitDy=0;exitPerimeter=0;entryX=0;entryY=0.5;entryDx=0;entryDy=0;" edge="1" parent="FDplaZTIDgFxjlzkoyM1-38" source="FDplaZTIDgFxjlzkoyM1-94" target="FDplaZTIDgFxjlzkoyM1-99">
          <mxGeometry relative="1" as="geometry" />
        </mxCell>
        <mxCell id="FDplaZTIDgFxjlzkoyM1-94" value="" style="points=[[0.25,0.25,0],[0.5,0,0],[0.75,0.25,0],[1,0.5,0],[0.75,0.75,0],[0.5,1,0],[0.25,0.75,0],[0,0.5,0]];shape=mxgraph.bpmn.gateway2;html=1;verticalLabelPosition=bottom;labelBackgroundColor=#ffffff;verticalAlign=top;align=center;perimeter=rhombusPerimeter;outlineConnect=0;outline=none;symbol=none;gwType=parallel;" vertex="1" parent="FDplaZTIDgFxjlzkoyM1-38">
          <mxGeometry x="389" y="455" width="50" height="50" as="geometry" />
        </mxCell>
        <mxCell id="FDplaZTIDgFxjlzkoyM1-95" style="edgeStyle=orthogonalEdgeStyle;rounded=0;orthogonalLoop=1;jettySize=auto;html=1;entryX=0.5;entryY=0;entryDx=0;entryDy=0;entryPerimeter=0;" edge="1" parent="FDplaZTIDgFxjlzkoyM1-38" source="FDplaZTIDgFxjlzkoyM1-50" target="FDplaZTIDgFxjlzkoyM1-94">
          <mxGeometry relative="1" as="geometry" />
        </mxCell>
        <mxCell id="FDplaZTIDgFxjlzkoyM1-96" value="Produto&lt;br&gt;pronto" style="text;html=1;align=center;verticalAlign=middle;resizable=0;points=[];autosize=1;strokeColor=none;fillColor=none;" vertex="1" parent="FDplaZTIDgFxjlzkoyM1-38">
          <mxGeometry x="314" y="460" width="70" height="40" as="geometry" />
        </mxCell>
        <mxCell id="FDplaZTIDgFxjlzkoyM1-98" value="Sim" style="text;html=1;align=center;verticalAlign=middle;resizable=0;points=[];autosize=1;strokeColor=none;fillColor=none;" vertex="1" parent="FDplaZTIDgFxjlzkoyM1-38">
          <mxGeometry x="480" y="455" width="40" height="30" as="geometry" />
        </mxCell>
        <mxCell id="FDplaZTIDgFxjlzkoyM1-102" style="edgeStyle=orthogonalEdgeStyle;rounded=0;orthogonalLoop=1;jettySize=auto;html=1;entryX=0.5;entryY=1;entryDx=0;entryDy=0;" edge="1" parent="FDplaZTIDgFxjlzkoyM1-38" source="FDplaZTIDgFxjlzkoyM1-99" target="FDplaZTIDgFxjlzkoyM1-51">
          <mxGeometry relative="1" as="geometry">
            <Array as="points">
              <mxPoint x="580" y="537" />
            </Array>
          </mxGeometry>
        </mxCell>
        <mxCell id="FDplaZTIDgFxjlzkoyM1-99" value="Funcionário da lanchonete prepara o produto do cliente" style="shape=process;whiteSpace=wrap;html=1;backgroundOutline=1;" vertex="1" parent="FDplaZTIDgFxjlzkoyM1-38">
          <mxGeometry x="439" y="500" width="120" height="75" as="geometry" />
        </mxCell>
        <mxCell id="FDplaZTIDgFxjlzkoyM1-101" value="Não" style="text;html=1;align=center;verticalAlign=middle;resizable=0;points=[];autosize=1;strokeColor=none;fillColor=none;" vertex="1" parent="FDplaZTIDgFxjlzkoyM1-38">
          <mxGeometry x="374" y="510" width="50" height="30" as="geometry" />
        </mxCell>
        <mxCell id="FDplaZTIDgFxjlzkoyM1-103" style="edgeStyle=orthogonalEdgeStyle;rounded=0;orthogonalLoop=1;jettySize=auto;html=1;entryX=0.5;entryY=0;entryDx=0;entryDy=0;entryPerimeter=0;" edge="1" parent="FDplaZTIDgFxjlzkoyM1-38" source="FDplaZTIDgFxjlzkoyM1-44" target="FDplaZTIDgFxjlzkoyM1-75">
          <mxGeometry relative="1" as="geometry">
            <Array as="points">
              <mxPoint x="620" y="165" />
              <mxPoint x="620" y="10" />
              <mxPoint x="314" y="10" />
            </Array>
          </mxGeometry>
        </mxCell>
        <mxCell id="FDplaZTIDgFxjlzkoyM1-67" style="edgeStyle=orthogonalEdgeStyle;rounded=0;orthogonalLoop=1;jettySize=auto;html=1;exitX=1;exitY=0.5;exitDx=0;exitDy=0;exitPerimeter=0;entryX=1;entryY=0.5;entryDx=0;entryDy=0;" edge="1" parent="1" source="FDplaZTIDgFxjlzkoyM1-53" target="FDplaZTIDgFxjlzkoyM1-7">
          <mxGeometry relative="1" as="geometry">
            <mxPoint x="190" y="330" as="targetPoint" />
            <Array as="points">
              <mxPoint x="1110" y="860" />
              <mxPoint x="1110" y="320" />
            </Array>
          </mxGeometry>
        </mxCell>
        <mxCell id="FDplaZTIDgFxjlzkoyM1-81" style="edgeStyle=orthogonalEdgeStyle;rounded=0;orthogonalLoop=1;jettySize=auto;html=1;exitX=0;exitY=0.5;exitDx=0;exitDy=0;exitPerimeter=0;entryX=0.5;entryY=1;entryDx=0;entryDy=0;entryPerimeter=0;" edge="1" parent="1" source="FDplaZTIDgFxjlzkoyM1-75" target="FDplaZTIDgFxjlzkoyM1-32">
          <mxGeometry relative="1" as="geometry" />
        </mxCell>
      </root>
    </mxGraphModel>
  </diagram>
</mxfile>
